<svg width="1021" height="819" viewBox="0 0 1021 819" fill="none" xmlns="http://www.w3.org/2000/svg">
<mask id="mask0_101_1205" style="mask-type:luminance" maskUnits="userSpaceOnUse" x="20" y="0" width="1001" height="807">
<path d="M909.315 622.26C755.948 790.723 560.634 843.971 323.373 782.003C86.1127 720.036 -11.9813 595.172 29.0915 407.413C70.1642 219.655 184.207 93.6781 371.219 29.4839C558.231 -34.7103 733.008 5.92127 895.552 151.379C1058.09 296.836 1062.68 453.797 909.315 622.26Z" fill="white"/>
</mask>
<g mask="url(#mask0_101_1205)">
<path d="M909.315 622.26C755.948 790.723 560.634 843.971 323.373 782.003C86.1127 720.036 -11.9813 595.172 29.0915 407.413C70.1642 219.655 184.207 93.6781 371.219 29.4839C558.231 -34.7103 733.008 5.92127 895.552 151.379C1058.09 296.836 1062.68 453.797 909.315 622.26Z" fill="#F9F3CC"/>
</g>
<path fill-rule="evenodd" clip-rule="evenodd" d="M15.4683 412.59C30.5811 417.449 46.6215 419.213 61.8625 423.64C75.4882 427.597 88.1415 432.917 101.558 436.94C102.343 431.819 102.76 423.148 100.461 418.323C97.2084 411.489 88.644 411.321 80.2118 408.887C59.6899 402.963 38.1019 401.715 17.7284 394.794C21.2172 400.318 19.659 407.633 15.4683 412.59ZM276.357 394.72C243.716 395.508 212.522 401.757 180.354 405.622C164.7 407.501 149.032 409.179 133.364 410.934C127.334 411.608 116.345 410.813 111.963 415.108C108.33 418.666 112.311 430.807 110.698 436.022C117.295 436.422 129.008 431.352 136.169 430.512C147.319 429.208 158.323 427.381 169.589 426.799C187.431 425.874 204.963 425.088 222.775 423.453C240.889 421.792 258.416 418.705 276.674 417.577C285.55 417.027 289.12 418.396 289.643 410.687C289.848 407.674 290.351 402.628 289.323 399.656C290.965 396.002 289.508 394.229 284.954 394.333C282.061 394.064 279.196 394.193 276.357 394.72ZM213.226 370.116C222.053 369.436 230.917 368.459 239.766 368.05C241.56 367.966 250.661 368.417 252.149 367.044C254.252 365.103 251.908 358.001 251.522 355.803C250.21 348.331 248.759 343.986 238.852 343.969C230.491 343.952 221.835 345.407 213.507 346.078C175.7 349.127 138.083 350.414 100.693 356.204C102.969 364.178 105.553 372.404 102.831 380.559C120.768 381.32 140.46 378.481 157.989 375.567C175.905 372.59 194.916 371.112 213.226 370.116ZM153.387 295.039C139.88 295.089 125.603 299.984 112.274 298.892C112.075 300.932 116.341 299.239 117.519 301.149C120.035 301.154 120.912 301.829 120.143 303.178C120.19 304.099 119.618 304.638 118.426 304.794C117.838 304.838 117.25 304.878 116.664 304.92C114.087 304.989 113.664 306.419 115.399 309.215C114.654 312.678 115.771 317.076 115.934 320.552C139.888 317.871 163.158 315.081 187.281 313.884C198.669 313.32 210.049 313.321 221.423 312.55C233.938 311.702 247.598 313.521 259.832 311.593C266.372 310.562 265.687 310.634 265.211 303.636C264.92 299.385 265.028 294.338 260.821 291.237C253.794 286.058 237.795 289.051 229.393 289.234C204.088 289.784 178.354 291.718 153.387 295.039ZM167.215 394.97C203.401 392.266 239.314 386.344 275.706 386.344C273.132 384.228 267.528 383.684 264.326 382.529C260.674 381.215 257.228 378.414 253.66 377.264C246.499 374.957 239.212 378.162 231.858 379.547C214.117 382.889 195.914 383.003 178.145 386.282C159.775 389.669 141.165 392.794 122.456 394.517C113.548 395.337 103.989 397 95.1863 395.063C94.4722 394.643 93.7541 394.222 93.0401 393.803C92.2711 391.108 90.1352 390.388 86.6321 391.644C82.1831 390.947 76.5175 391.847 72.0385 391.939C71.857 393.411 88.4039 398.027 91.5591 399.17C99.1613 401.924 104.316 403.941 112.435 402.761C130.717 400.104 148.7 396.932 167.215 394.97ZM39.9206 307.927C41.3344 312.463 47.2725 310.4 52.3847 310.899C59.2464 311.568 66.0735 313.516 72.7195 314.984C84.789 317.653 96.8625 320.284 108.881 323.105C108.407 319.111 109.481 310.021 106.916 306.477C104.225 302.763 91.4636 301.135 85.5214 300.002C70.5429 297.151 54.5431 298.773 39.3265 299.373C39.5951 302.221 39.7945 305.071 39.9206 307.927ZM183.8 336.302C198.012 335.312 212.24 334.542 226.492 334.13C242.787 333.66 230.943 331.518 230.599 323.342C209.182 326.153 187.576 326.707 166.226 329.109C148.538 331.102 127.466 336.304 109.424 333.51C100.915 332.192 92.2264 331.684 83.1738 330.94C74.6338 330.238 66.5759 326.964 58.1397 326.151C48.6701 325.237 38.995 329.617 29.5741 330.774C25.5808 331.265 24.6532 333.493 22.7674 329.539C20.8124 325.437 26.4128 322.084 28.618 319.632C31.1934 316.768 30.1235 321.419 31.5536 316.945C31.9543 315.691 30.868 312.542 30.6686 311.191C30.1641 307.776 28.8601 304.072 28.6567 300.664C28.4695 297.535 28.4369 292.758 32.5666 290.93C35.0871 289.816 36.8732 291.442 39.0702 291.127C56.2213 288.673 76.3955 288.471 93.7887 290.84C112.645 293.406 128.874 286.611 147.46 283.855C169.261 280.623 191.293 280.139 213.283 278.773C232.086 277.606 266.441 271.552 273.604 291.311C275.632 296.909 278.588 312.322 273.13 317.086C265.969 323.342 249.388 321.345 240.128 322.971C241.513 326.213 245.637 328.417 244.211 332.278C257.187 332.782 259.482 342.866 261.514 352.281C263.618 362.022 259.515 365.894 270.829 370.966C286.599 378.035 303.305 385.174 302.996 402.01C302.841 410.475 301.69 423.241 291.126 427.632C280.791 431.928 263.964 431.203 252.574 432.761C230.518 435.784 208.385 439.329 186.195 441.142C162.566 443.075 138.545 444.661 114.878 445.524C101.983 445.997 90.843 447.599 78.3891 444.029C66.1446 440.519 54.1668 437.956 41.5338 435.35C29.0615 432.78 -9.11814 429.317 2.00743 411.769C3.78744 408.961 9.87195 406.728 10.8545 404.073C12.4392 399.79 7.085 396.448 7.30878 392.578C7.71767 385.497 17.4273 384.609 24.1324 384.609C12.6406 378.695 28.0301 371.694 27.9386 366.673C27.7779 357.828 14.4064 352.087 13.6496 344.671C11.8106 326.627 81.3856 345.416 92.0942 349.32C83.8512 359.375 45.6125 350.674 34.2225 349.149C35.7767 352.506 37.2618 355.525 37.7114 358.963C38.0755 361.764 36.7756 364.965 37.9656 367.785C39.8453 372.243 39.7802 371.39 46.4344 372.606C51.3574 373.504 56.2255 374.543 61.1322 375.495C68.6693 376.959 80.5251 380.884 87.993 380.67C94.5435 380.482 93.2496 382.153 94.4499 376.167C95.0968 372.951 93.9942 369.531 93.3351 366.38C91.9599 359.776 89.948 353.525 96.9582 348.787C103.643 344.268 117.732 342.117 125.931 340.523C144.127 336.986 165.129 336.119 183.8 336.302Z" fill="black"/>
<path fill-rule="evenodd" clip-rule="evenodd" d="M272.011 230.245C252.248 227.521 232.169 226.85 212.174 227.675C213.257 231.747 214.341 235.816 215.426 239.884C234.159 235.916 253.162 233.59 272.011 230.245ZM111.313 261.824C103.388 261.346 108.902 264.262 110.858 268.53C113.264 273.774 112.748 280.403 113.301 285.923C136.49 278.648 163.47 274.39 188.124 271.941C199.816 270.781 211.678 270.448 223.436 269.952C226.911 269.805 239.462 271.003 242.005 269.079C243.892 267.648 242.568 259.755 240.754 258.013C230.886 248.55 192.74 256.722 178.939 257.569C156.312 258.96 134.098 262.286 111.313 261.824ZM144.248 236.462C164.78 238.085 184.606 237.93 205.14 240.461C203.583 229.724 205.444 226.982 190.638 226.412C177.444 225.906 164.29 225.496 151.157 225.501C121.624 225.514 92.1609 225.05 62.5954 225.05V235.963C89.9388 233.659 116.849 237.819 144.248 236.462ZM45.5139 276.593C58.4714 276.547 70.7188 280.57 83.6783 281.612C91.4345 282.236 88.998 283.028 94.3789 286.232C102.759 291.223 105.173 288.565 104.123 281.782C100.562 258.84 65.2562 263.985 44.9119 262.71C46.2484 268.181 43.1754 272.82 38.6474 276.593H45.5139ZM185.577 247.138C166.939 247.386 148.278 248.258 129.77 247.94C121.486 247.797 110.752 246.446 102.633 247.608C96.6847 248.459 91.7099 250.952 85.1862 251.878C94.7686 256.125 99.6273 253.256 109.701 252.289C119.768 251.325 129.982 251.344 140.089 250.841C156.687 250.013 174.379 246.742 190.732 247.632C191.03 245.737 189.314 245.572 185.577 247.138ZM37.7455 296.825C29.1936 296.81 40.9594 288.808 42.5041 288.015C33.0359 288.015 30.7444 283.343 33.4869 275.837C36.0722 268.768 37.9843 270.932 31.481 265.044C26.5858 260.611 25.8451 257.345 31.6157 252.39C37.4884 247.348 49.3808 248.774 54.5842 244.612C63.4422 237.528 52.011 223.419 64.2849 217.992C72.5818 214.326 85.9556 214.78 95.1156 214.005C103.97 213.256 113.134 213.112 122.047 213.013C141.475 212.794 161.656 215.475 180.998 216.949C188.05 217.486 195.978 219.83 202.926 219.835C210.011 219.842 217.432 218.542 224.748 218.692C233.253 218.868 241.445 218.352 250.216 219.501C256.935 220.382 272.625 220.844 277.761 224.954C294.875 238.65 254.291 244.94 247.308 246.478C254.415 252.884 254.119 261.351 253.048 269.415C256.431 269.415 262.263 268.204 264.014 271.325C266.189 275.202 258.139 276.209 256.235 276.661C245.286 279.263 232.471 278.55 221.187 279.495C198.627 281.384 176.34 282.473 154.014 285.99C143.134 287.703 132.319 289.824 121.447 291.492C119.57 291.782 117.682 292.012 115.786 292.187C112.877 291.982 111.936 293.484 112.962 296.701C109.944 297.913 98.6927 294.891 95.2135 294.429C75.2957 291.77 57.4777 292.875 37.7455 296.825Z" fill="black"/>
<path fill-rule="evenodd" clip-rule="evenodd" d="M421.492 298.815C420.772 310.047 420.05 321.277 419.33 332.508C423.966 331.235 453.459 322.961 451.637 331.35C450.33 337.367 442.038 343.876 437.814 348.065C433.926 351.922 429.922 355.678 425.816 359.325C433.362 356.571 440.971 353.963 448.635 351.523C454.434 349.677 460.275 347.874 466.217 346.49C468.422 345.976 474.378 343.879 476.462 345.309C481.937 349.066 452.229 376.739 448.16 380.64C453.914 378.088 459.806 375.771 465.799 373.782C470.125 372.346 483.492 366.858 487.321 371.544C491.419 376.558 481.266 388.072 478.451 391.722C474.416 396.953 470.044 401.971 465.457 406.769C484.523 423.098 506.928 437.63 530.773 446.663C548.256 453.286 565.429 454.973 583.878 451.338C602.831 447.604 621.007 440.442 638.286 432.254C648.433 427.444 658.446 422.241 667.986 416.395C664.053 411.834 660.235 407.178 656.525 402.451C651.23 395.701 644.723 388.326 641.704 380.291C638.749 372.427 649.834 373.962 655.151 374.389C662.851 375.007 670.53 376.32 678.076 377.89C672.741 374.352 667.502 370.672 662.369 366.872C655.678 361.921 646.753 356.322 642.374 349.199C638.523 342.935 646.975 344.517 650.884 345.338C660.201 347.295 669.268 350.63 678.155 353.883C684.663 356.265 691.131 358.76 697.537 361.388C693.561 358.092 689.718 354.639 686.025 351.058C681.06 346.246 674.366 340.368 672.14 333.741C667.608 320.245 698.097 330.425 703.303 332.508C702.34 318.527 701.38 304.546 700.419 290.565C660.048 300.807 619.677 311.051 579.305 321.294C574.942 322.401 569.482 324.812 564.932 324.941C560.81 325.058 555.833 323.289 551.814 322.557L478.757 309.248C459.669 305.771 440.581 302.293 421.492 298.815Z" fill="#E7B8C2"/>
<path fill-rule="evenodd" clip-rule="evenodd" d="M855.397 779.702C851.039 782.079 845.934 783.915 841.092 785.147C838.248 785.872 833.549 788.107 831.051 786.058C829.851 785.074 829.576 782.84 828.869 781.546C827.749 779.496 826.157 777.726 824.665 775.914C821.051 771.524 817.289 767.29 813.353 763.159C811.488 761.201 808.081 756.633 804.795 756.933C800.699 757.308 800.797 762.714 801.824 765.476C805.092 774.268 814.985 781.933 821.448 788.558C819.805 790.969 810.781 790.681 808.275 790.118C804.45 789.256 804.062 786.659 802.316 783.687C798.233 776.744 789.948 772.859 783.137 768.777C780.654 767.288 775.377 763.162 772.14 764.2C769.074 765.184 769.207 768.919 770.183 771.358C771.659 775.045 775.856 777.601 778.96 779.931C783.099 783.037 786.883 786.416 790.333 790.218C785.361 790.605 780.408 791.273 775.449 791.662C769.452 792.134 764.454 788.996 758.933 787.218C753.803 785.565 748.691 784.168 743.647 782.263C737.984 780.125 732.051 779.381 726.338 777.504C703.918 770.142 681.95 760.882 660.344 751.548C650.049 747.099 639.966 742.649 629.239 739.168C621.422 736.63 609.137 731.574 607.268 722.695C606.281 718.004 609.876 712.959 610.405 708.272C611.027 702.758 610.538 696.691 608.776 691.4C607.223 686.739 604.65 682.424 602.622 677.949C600.26 672.733 602.375 672.818 606.964 672.225C612.458 671.515 618.869 668.566 624.032 666.646C629.981 664.433 635.877 661.34 641.325 658.161C646.253 655.286 650.54 651.579 654.463 647.554C658.453 643.459 661.037 638.606 664.895 634.411C679.134 651.108 692.667 668.058 707.797 684.033C714.938 691.573 722.703 697.808 731.503 703.541C735.177 705.937 738.823 708.671 742.826 710.563C747.832 712.933 753.429 714.403 758.574 716.565C778.303 724.853 797.132 733.914 815.537 744.608C824.442 749.781 831.914 755.713 839.755 762.202C842.196 764.223 862.187 775.997 855.397 779.702ZM623.963 642.918C620.775 644.296 617.736 646.084 614.334 646.968C615.298 641.374 620.774 632.935 627.794 633.864C630.476 634.218 632.499 636.204 631.32 638.942C630.249 641.429 626.234 641.938 623.963 642.918ZM402.043 491.182C398.428 493.085 395.06 494.194 392.941 490.11C394.511 489.809 401.642 488.903 402.043 491.182ZM396.024 479.637C393.232 478.829 395.465 477.98 396.426 477.005C397.175 476.247 399.654 473.586 400.522 473.147C404.353 471.212 407.315 478.412 409.146 480.749C404.809 480.382 400.247 480.857 396.024 479.637ZM425.89 504.568C420.596 505.423 421.183 499.108 421.341 495.908C422.458 497.208 430.018 503.901 425.89 504.568ZM443.435 493.659C436.98 494.698 432.715 484.065 433.873 479.414C434.891 475.317 439.893 473.029 443.875 472.425C447.735 471.839 453.108 472.639 454.255 476.883C455.268 480.634 447.737 492.967 443.435 493.659ZM596.222 654.17C591.583 655.53 587.038 655.701 582.376 657.035C577.087 658.549 572.191 658.414 566.891 659.445C564.735 659.863 558.918 662.859 556.814 662.19C554.731 661.527 551.716 655.362 550.518 653.758C559.896 650.042 567.896 645.243 574.076 637.412C578.992 631.184 584.262 621.854 581.17 613.817C577.683 604.755 565.662 602.787 557.647 606.573C553.855 608.362 550.097 610.588 546.971 613.316C543.397 616.434 541.991 619.839 539.676 623.685C537.334 627.576 535.691 625.412 533.351 622.108C531.351 619.284 531.612 616.433 529.113 613.647C527.838 612.226 525.864 610.854 525.199 609.018C524.777 607.854 525.666 605.79 524.866 604.873C523.741 603.586 522.372 605.099 521.429 603.949C520.745 603.114 520.969 601.21 520.262 600.166C519.648 599.572 518.966 599.065 518.212 598.644C517.297 598.212 517.13 597.673 517.711 597.025C516.983 595.741 517.684 595.308 516.126 593.745C513.697 591.31 511.482 588.976 509.753 586.101C508.963 584.785 509.041 582.834 508.059 581.695C506.712 580.131 504.468 580.366 503.309 578.431C502.277 576.706 502.968 573.69 501.266 572.124C500.369 571.88 499.472 571.64 498.573 571.404C497.898 570.778 497.504 570.019 497.392 569.125C496.447 567.738 496.259 566.108 495.066 564.642C492.782 561.84 489.71 559.25 487.693 556.294C485.572 553.188 486.697 552.665 490.38 551.553C493.703 550.549 496.736 549.618 499.815 547.91C514.052 540.01 527.55 519.055 504.952 512.653C496.566 510.278 489.677 503.889 480.379 506.4C476.348 507.489 472.525 509.807 469.517 512.557C467.44 514.459 465.515 519.544 462.964 520.519C458.378 522.27 460.317 517.894 459.015 515.884C458.394 514.924 455.892 513.819 454.965 512.946C453.876 511.922 452.824 510.63 452.069 509.364C450.667 507.013 449.809 505.704 447.786 503.79C447.023 503.067 443.216 499.334 446.65 499.822C445.259 495.782 447.288 495.174 450.093 492.222C453.386 488.755 456.787 483.938 456.806 479.081C456.844 469.755 445.254 465.577 437.975 471.112C436.495 472.239 427.734 483.112 429.527 476.178C430.493 472.438 439.441 462.675 443.59 465.201C438.941 458.741 428.261 474.427 425.769 477.637C423.646 473.911 423.496 470.996 419.984 468.111C417.125 472.484 418.634 467.705 418.004 466.734C416.642 464.637 417.39 467.035 416.652 466.291C415.732 465.362 414.284 464.631 413.307 463.402C411.631 465.57 412.3 463.237 411.787 462.427C410.586 460.533 411.05 459.436 408.993 457.789C407.495 456.592 404.545 454.733 402.53 454.563C400.206 454.366 399.562 455.216 397.194 454.587C394.182 453.788 390.391 452.562 391.85 457.365C392.908 460.856 397.212 462.84 398.155 466.407C399.105 469.997 395.382 473.615 393.575 476.559C391.256 480.335 389.359 480.026 385.157 480.878C382.471 481.422 378.887 482.586 381.189 485.692C382.835 487.912 386.689 487.445 388.86 488.759C391.905 490.602 391.862 495.147 395.749 495.937C400.029 496.808 402.481 492.264 406.089 491.167C408.655 490.387 416.604 490.474 418.624 492.311C421.376 494.814 418.998 499.596 419.691 502.706C420.721 507.317 423.993 507.598 428.131 507.746C433.225 507.927 435.016 512.591 437.756 516.291C444.173 524.956 449.75 534.193 456.323 542.742C459.233 546.528 463.489 549.895 465.872 554.004C468.814 559.078 464.729 562.004 461.205 565.645C456.599 570.405 453.16 575.82 449.166 581.021C445.616 585.644 441.204 584.493 435.531 584.493C436.796 582.008 438.317 580.458 441.427 580.76C438.175 576.973 435.574 581.304 433.464 583.703C430.413 587.173 426.434 588.01 422.513 590.291C421.126 591.098 413.572 596.33 415.867 598.116C416.128 598.319 428.633 590.476 430.057 589.756C430.057 592.652 429.393 595.66 429.818 598.539C430.13 600.651 431.687 602.853 431.355 605.049C430.726 609.192 425.11 612.457 422.699 615.685C420.884 618.115 421.322 620.032 420.398 622.641C419.556 625.02 419.999 624.301 417.899 625.036C413.625 626.533 406.431 625.725 402.561 623.596C400.158 622.275 398.316 620.187 396.364 618.347C394.894 616.96 391.196 614.59 390.788 612.649C390.087 609.307 397.046 603.096 398.424 599.649C402.313 589.919 395.643 582.356 385.263 581.803C388.462 579.45 392.428 581.224 395.8 582.121C390.035 574.505 380.189 580.772 375.299 585.948C371.958 577.896 370.347 569.401 368.306 561.002C366.916 555.284 361.624 545.078 363.984 539.19C365.125 536.344 368.346 534.757 370.575 532.783C373.107 530.54 375.275 527.859 377.126 525.082C381.488 518.543 384.006 510.288 378.001 503.843C379.825 503.557 381.651 503.272 383.475 502.985C380.507 500.326 375.826 501.622 371.974 500.833C369.53 500.333 362.499 500.657 360.867 499.338C358.905 497.753 360.163 490.458 360.233 488.299C360.394 483.253 360.837 478.402 361.421 473.387C361.975 468.649 361.863 463.53 362.89 458.875C363.724 455.098 366.387 453.947 369.461 451.722C376.808 446.399 382.794 439.925 380.286 430.753C381.175 430.618 382.063 430.484 382.952 430.349C380.078 428.367 376.358 429.088 373.161 428.04C376.097 420.161 382.591 406.309 393.134 405.563C393.497 409.086 393.249 413.275 395.741 416.191C398.579 419.51 403.56 419.845 407.404 418.089C410.891 416.494 414.166 413.114 415.774 409.775C416.861 407.515 416.665 403.693 418.574 401.901C421.135 399.499 438.787 400.948 438.246 405.004C437.928 407.388 433.207 411.396 431.888 413.51C429.474 417.377 427.541 421.56 426.654 426.003C425.308 432.748 426.088 441.653 433.272 445.199C441.443 449.234 451.401 444.104 458.101 439.673C461.781 437.24 465.345 434.554 468.706 431.735C470.496 430.235 472.295 428.688 473.874 426.982C475.038 425.721 475.97 423.69 477.404 422.747C480.792 420.518 484.113 424.299 486.98 426.209C491.65 429.321 496.297 432.275 501.31 434.864C511.482 440.118 520.783 447.078 529.777 453.988C538.824 460.939 548.152 468.09 555.48 476.75C551.041 479.353 551.833 480.029 549.858 484.673C548.457 487.969 546.527 490.773 546.304 494.435C545.919 500.754 550.173 506.14 556.631 507.539C560.243 508.321 563.684 507.695 567.029 506.287C569.629 505.193 572.221 502.499 574.938 501.83C579.988 500.588 584.029 509.685 586.86 512.889C599.432 527.12 612.722 540.788 624.56 555.6C625.872 557.241 629.766 560.445 630.083 562.617C630.538 565.737 625.391 568.708 623.257 570.497C622.136 571.435 610.249 582.096 614.241 583.79C615.378 584.273 618.709 577.733 619.541 577.173C622.659 575.079 620.301 579.184 620.115 581.259C619.651 586.417 623.366 589.228 628.589 588.574C634.163 587.876 639.125 583.681 642.574 579.718C646.897 584.492 653.653 591.707 654.903 598.084C655.702 602.158 652.005 612.128 658.906 612.959C659.959 613.085 663.772 610.389 664.482 611.919C665.075 613.197 660.954 615.382 660.359 615.805C657.82 617.612 656.286 619.549 654.236 621.738C651.829 624.308 648.54 626.473 645.832 628.935C642.979 631.53 637.336 638.575 633.571 635.171C631.679 633.461 632.176 631.224 629.146 630.22C626.386 629.306 622.89 630.465 620.325 631.479C617.438 632.62 607.929 636.785 606.873 640.214C605.418 644.943 613.278 639.257 614.675 638.426C613.082 642.284 612.2 647.868 608.142 650.118C604.77 651.987 599.92 653.086 596.222 654.17ZM542.319 624.997C545.017 616.727 560.932 601.981 570.991 606.593C559.268 608.935 549.965 616.585 542.319 624.997ZM548.27 648.68C544.348 646.596 544.559 640.542 543.19 637C542.404 634.968 540.832 633.483 541.294 631.228C541.835 628.584 545.372 625.645 547.254 623.738C553.179 617.736 563.606 609.534 573.143 610.91C585.282 612.662 577.053 628.201 572.919 633.551C569.396 638.113 555.822 652.694 548.27 648.68ZM519.953 638.566C506.826 637.73 493.743 636.612 480.795 634.314C476.204 633.499 472.358 633.62 474.984 628.587C475.852 626.926 481.081 616.516 482.262 616.815C482.962 616.992 482.802 624.147 483.007 624.967C483.935 628.65 486.538 632.082 490.926 631.848C498.106 631.467 502.733 622.615 506.514 617.864C509.542 621.747 511.735 626.06 514.779 629.878C516.234 631.703 521.3 635.948 519.953 638.566ZM442.991 589.434C440.789 594.253 436.36 598.836 433.28 603.201C431.538 599.686 430.313 591.616 434.444 589.017C436.008 588.034 444.384 586.388 442.991 589.434ZM488.52 603.783C489.126 601.928 489.797 600.088 490.546 598.281C491.83 602.136 492.487 602.25 488.52 603.783ZM499.757 607.731C501.35 610.306 504.006 612.838 503.589 616.072C503.273 618.522 500.95 621.033 499.291 622.741C496.546 625.566 490.464 630.988 486.487 627.237C483.163 624.103 484.321 615.488 485.866 611.963C488.073 606.925 495.959 601.596 499.757 607.731ZM491.961 602.453C492.874 602.107 490.955 596.487 492.736 595.927C494.289 599.304 495.753 600.218 491.961 602.453ZM466.877 526.813C466.285 524.739 464.929 524.826 465.418 522.263C465.738 520.581 467.137 518.787 468.199 517.455C470.314 514.8 473.105 512.612 476.122 510.955C482.493 507.459 491.242 506.006 496.945 511.48C491.613 512.283 475.266 517.301 475.163 524.255C481.092 523.166 485.755 517.487 491.702 515.698C496.583 514.228 501.877 514.331 506.733 515.883C520.026 520.128 514.499 531.082 506.996 538.198C502.542 542.423 497.202 545.576 491.364 547.753C488.662 548.76 487.004 548.871 484.348 548.365C483.851 548.27 483.269 547.39 482.673 547.202C481.192 546.733 481.621 548.319 480.4 547.607C479.335 546.986 477.063 542.978 476.339 541.831C475.186 540.005 474.648 538.228 473.233 536.561C471.816 534.893 471.127 532.657 469.816 531.148C469.187 530.422 467.462 530.451 466.998 529.742C466.304 528.678 467.188 527.902 466.877 526.813ZM446.463 608.51C449.484 603.505 454.653 599.256 458.652 594.881C458.898 602.072 453.49 606.995 446.463 608.51ZM450.546 610.822C456.785 608.729 460.223 603.721 460.859 597.649C461.666 589.957 466.731 585.921 469.781 579.011C470.949 576.363 472.312 567.65 476.845 570.143C478.4 570.999 479.322 574.216 480.132 575.67C482.092 579.186 484.321 582.595 486.4 586.047C488.093 588.859 490.63 591.685 489.883 595.07C489.232 598.02 487.136 601.164 485.909 603.946C483.011 610.518 479.204 616.571 476.023 622.998C474.739 625.591 473.22 631.73 469.302 631.699C466.201 631.673 466.547 628.44 464.506 627.332C461.928 625.933 458.997 628.595 456.88 629.699C459.318 625.773 463.581 623.551 468.372 624.29C462.635 618.842 458.759 626.192 453.835 627.829C449.17 629.381 440.893 622.065 436.966 619.992C438.469 617.566 439.826 614.598 442.41 613.002C444.861 611.487 447.87 611.72 450.546 610.822ZM399.821 660.604C400.504 657.467 402.434 655.613 403.658 652.765C405.078 656.218 401.754 658.255 399.821 660.604ZM498.948 679.851C498.613 690.414 497.708 700.948 497.381 711.514C497.23 716.386 496.326 721.034 495.725 725.85C495.217 729.923 495.476 733.923 492.787 737.403C488.548 742.889 480.306 744.466 473.907 746.498C469.208 747.99 464.455 749.344 459.814 751.002C455.639 752.494 452.274 754.754 448.303 756.527C444.752 758.114 440.918 759.055 437.382 760.745C433.726 762.494 430.836 764.625 427.08 766.181C422.583 768.045 418.878 771.36 414.88 773.992C411.359 776.309 407.635 778.098 404.607 781.011C401.767 783.745 398.172 784.944 394.954 787.372C391.551 789.94 387.99 791.609 384.231 793.622C376.53 797.748 366.14 804.795 356.873 800.787C359.524 797.559 364.948 794.457 365.361 790.009C365.897 784.216 360.609 786.348 357.546 788.199C352.908 791 350.342 794.383 346.811 798.118C342.683 802.483 337.468 799.546 332.417 798.318C335.871 795.354 339.297 792.362 342.744 789.392C345.655 786.886 350.108 784.175 351.88 780.71C353.147 778.231 353.085 774.834 350.028 773.548C346.608 772.109 342.741 775.143 340.208 776.95C333.484 781.746 329.056 787.829 324.641 794.504C322.293 798.054 321.211 797.782 316.891 797.072C312.313 796.32 307.734 795.519 303.117 794.991C309.232 789.003 316.067 782.516 320.896 775.51C322.46 773.24 324.501 767.257 319.734 766.707C317.77 766.48 313.859 770.31 312.343 771.342C305.721 775.855 299.355 781.548 294.966 788.137C293.517 790.312 293.062 792.731 290.256 792.911C286.589 793.148 279.772 789.81 276.234 788.779C282.997 780.65 289.712 772.463 297.613 765.295C304.873 758.708 312.114 753.922 320.604 748.87C329.704 743.454 338.18 737.221 346.534 730.823C354.531 724.698 362.885 718.922 370.246 712.084C384.95 698.425 398.046 682.716 408.892 666.106C411.429 662.219 413.818 658.231 415.883 654.095C417.822 650.212 418.716 645.567 421.334 642.035C422.239 640.814 423.513 639.907 424.319 638.634C425.079 637.434 424.822 635.985 425.981 634.923C428.662 632.469 433.545 633.949 436.051 635.669C440.082 638.435 443.342 641.794 447.772 644.11C452.228 646.439 457.048 648.132 461.981 649.277C473.512 651.95 484.943 654.143 496.691 655.768C495.481 660.042 498.45 660.715 499.434 664.561C500.628 669.228 499.097 675.098 498.948 679.851ZM387.919 608.574C385.304 604.87 382.971 600.998 380.401 597.27C378.837 595 376.897 592.562 378.234 589.785C380.487 585.104 388.435 584.271 392.748 586.312C402.553 590.951 393.445 604.217 387.919 608.574ZM361.965 523.871C361.063 516.632 363.966 511.496 370.834 507.701C375.729 504.995 379.671 508.693 379.002 513.624C377.985 521.137 369.565 529.493 363.139 533.413C362.719 530.236 362.363 527.051 361.965 523.871ZM360.918 503.159C362.944 501.626 368.37 503.582 370.717 503.716C367.489 506.405 364.261 509.094 361.032 511.784C360.821 509.939 359.049 504.574 360.918 503.159ZM371.812 433.251C388.148 431.225 369.342 447.941 364.609 450.561C365.379 447.004 367.271 433.815 371.812 433.251ZM415.301 403.986C413.107 412.553 396.054 421.9 395.876 407.866C395.81 402.637 398.891 403.06 403.387 402.558C405.952 402.273 416.554 399.089 415.301 403.986ZM356.399 417.254C354.484 422.044 352.949 426.959 351.073 431.756C350.241 433.879 349.263 435.339 347.715 437.022C346.419 438.429 344.876 438.784 344.927 441.008C346.551 440.709 347.822 439.786 349.134 438.897C348.816 443.306 347.181 448.051 346.39 452.445C345.442 457.716 344.652 462.988 344.36 468.332C343.724 479.953 343.719 491.532 343.986 503.159C344.123 509.084 344.185 515.013 344.52 520.931C344.687 523.875 344.876 526.831 345.258 529.758C345.413 530.939 346.312 533.454 345.757 534.561C343.575 538.907 333.91 526.969 329.712 528.721C330.316 525.413 328.923 526.137 326.597 524.511C325.471 523.722 324.738 522.381 323.563 521.679C323.207 521.313 322.816 520.988 322.389 520.703C321.904 520.071 321.391 520.139 320.852 520.904C316.124 518.209 314.902 512.465 312.364 508.601C311.058 506.614 309.797 506.304 309.574 503.557C309.381 501.163 309.759 498.724 309.657 496.32C309.541 493.609 309.375 490.619 308.577 487.993C307.651 484.944 306.377 485.193 303.896 483.569C304.661 483.25 305.165 482.715 305.409 481.963C304.616 482.097 302.208 483.034 301.61 482.36C300.434 481.039 303.21 480.862 303.939 480.335C300.826 479.017 301.497 477.934 302.62 475.519C302.938 474.836 303.242 473.815 303.512 473.239C304.103 471.98 304.442 472.777 304.637 471.214C304.823 469.723 303.437 466.791 303.028 465.202C302.343 462.537 301.964 460.235 302.58 457.458C303.078 455.21 304.419 453.175 304.512 450.863C304.539 450.214 303.501 449.999 303.488 449.372C303.467 448.456 304.364 448.054 304.597 447.207C305.192 445.041 304.924 442.751 305.942 440.695C306.859 438.849 308.709 436.46 310.019 434.849C310.927 433.733 313.155 432.474 313.399 431.001C313.56 430.024 311.966 430.136 312.037 429.401C312.133 428.405 313.01 428.082 313.25 427.342C313.913 425.31 314.08 423.358 315.793 421.801C317.95 419.842 318.888 420.663 318.977 417.431C319.021 415.854 317.698 415.611 318.406 413.793C318.791 412.806 319.927 412.223 320.654 411.524C322.812 409.449 324.266 407.606 325.802 405.042C327.16 402.777 329.327 401.459 330.719 399.503C332.532 396.953 329.822 395.689 333.5 394.969C332.977 393.386 332.422 392.107 333.797 390.767C334.665 389.922 336.867 390.439 337.635 389.461C338.515 388.339 337.214 385.679 338.541 384.95C339.619 384.359 341.235 386.183 342.93 385.28C344.222 384.592 346.172 380.791 345.757 379.394C349.097 381.186 348.264 379.952 349.863 377.653C350.221 377.138 351.307 377.024 351.616 376.503C352.233 375.464 352.092 374.404 352.981 373.559C354.463 372.152 356.887 372.514 358.517 371.508C359.864 370.679 359.793 369.784 360.867 369C361.786 368.331 363.294 368.203 364.187 367.509C365.937 366.151 365.954 364.717 368.142 363.547C370.733 362.162 373.028 360.984 375.385 359.148C376.922 357.952 378.381 355.83 380.179 355.041C382.665 353.949 384.602 353.872 387.034 352.314C388.792 351.187 390.454 349.329 392.179 348.38C393.481 347.665 394.394 347.819 396.035 347.376C398.988 346.577 399.707 343.924 402.116 342.844C403.77 342.102 406.178 342.782 407.993 342.392C413.645 341.182 419.227 338.573 424.898 337.128C431.82 335.364 438.791 333.82 445.766 332.261C439.356 340.545 431.192 348.018 422.912 354.597C420.195 356.757 405.301 366.603 413.329 370.807C416.551 372.494 423.552 367.044 426.154 365.712C431.393 363.029 436.819 360.881 442.306 358.711C451.179 355.202 462.734 348.961 472.595 349.463C466.592 356.484 459.099 362.121 452.234 368.323C445.925 374.024 436.419 379.37 439.395 388.7C430.532 386.55 422.573 384.01 413.36 384.572C409.232 384.824 405.103 384.351 400.995 384.902C396.527 385.505 392.321 386.93 388.028 388.181C384.631 389.17 380.879 389.247 377.754 390.892C376.243 391.688 374.377 392.823 373.02 393.81C371.211 395.126 370.8 395.998 369.38 397.731C364.313 403.918 359.41 409.717 356.399 417.254ZM328.683 534.342C328.406 533.271 328.154 532.294 327.837 531.071C330.658 532.727 330.658 532.727 328.683 534.342ZM307.368 500.24C307.02 500.699 305.559 500.845 305.135 500.45C304.607 499.958 305.995 498.043 306.218 497.636C306.768 498.039 308.035 499.358 307.368 500.24ZM301.329 487.829C301.702 486.521 302.077 485.215 302.45 483.907C302.908 485.119 304.976 486.459 305.021 487.614C305.05 488.379 301.737 487.998 301.329 487.829ZM302.528 489.623C305.764 491.654 306.102 494.051 306.199 497.557C302.326 496.334 302.882 492.759 302.528 489.623ZM358.807 351.262C358.48 352.105 357.093 354.732 356.077 352.895C355.753 352.307 358.131 351.504 358.807 351.262ZM357.877 348.399C358.677 347.712 360.289 348.567 361.194 348.011C361.828 347.622 361.618 347.227 361.916 346.996C361.976 346.95 362.838 345.286 363.191 344.908C363.815 344.244 365.176 343.83 365.934 343.231C368.054 341.556 369.25 339.353 370.584 337.113C372.175 334.438 372.682 334.129 375.247 332.904C377.017 332.06 378.388 331.026 379.828 329.591C381.486 327.938 381.364 326.755 382.726 324.948C383.399 324.057 384.367 323.946 385.151 323.228C386.091 322.367 386.568 321.164 387.437 320.296C387.813 319.92 389.017 319.921 389.244 319.599C389.534 319.192 389.76 317.565 390.032 317.265C390.55 317.933 391.07 318.601 391.588 319.269C393.633 315.84 395.125 313.007 398.545 310.725C402.136 308.328 405.237 304.822 408.949 302.676C409.783 302.194 411.483 301.991 412.121 301.28C413.198 300.078 412.265 299.008 413.051 297.987C413.943 296.829 415.671 297.766 416.805 297.267C418.24 296.635 418.65 294.79 420.498 294.994C414.422 301.847 414.499 312.51 414.176 321.07C414.036 324.758 416.473 326.617 412.876 329.324C409.817 331.627 405.503 330.943 401.886 332.459C397.344 334.361 392.486 335.374 387.852 337.033C383.058 338.747 379.204 341.75 374.591 343.737C370.523 345.488 367.745 347.978 364.024 350.14C362.641 350.944 360.498 352.111 358.849 351.15C357.816 350.548 356.529 349.559 357.877 348.399ZM426.495 290.936C426.759 289.962 431.945 287.404 433.221 286.569C435.136 285.314 437.97 282.249 440.107 283.466C440.848 280.638 443.737 277.492 446.29 276.892C449.122 276.226 453.981 273.911 456.768 271.889C457.581 271.299 457.85 270.436 458.808 269.882C460.475 268.918 462.13 269.444 463.736 268.129C463.982 267.929 466.204 264.43 466.292 264.463C466.405 264.839 466.509 265.218 466.599 265.6C468.286 264.708 469.788 263.999 470.839 262.861C471.078 262.603 469.532 261.932 470.02 261.421C470.617 260.795 471.951 261.495 472.554 260.9C470.677 269.787 472.075 281.225 481.53 285.731C470.285 286.889 459.303 283.666 447.919 285.646C442.471 286.594 436.932 288.15 431.975 290.539C428.938 292.004 425.055 297.249 422.032 294.702C423.232 293.177 425.061 292.23 426.495 290.936ZM481.056 265.37C485.26 260.466 491.638 258.526 498.062 260.282C505.582 262.339 502.411 267.349 501.275 272.912C499.105 269.878 494.404 266.869 490.401 266.778C484.726 266.649 486.871 271.158 490.279 272.773C493.377 274.241 498.69 274.649 500.908 277.319C503.066 279.916 502.239 284.163 502.587 287.225C500.909 286.988 499.231 286.75 497.552 286.512C498.96 279.364 492.762 279.018 486.982 277.003C481.141 274.967 476.271 270.951 481.056 265.37ZM499.891 247.769V254.402C497.553 253.131 495.214 251.861 492.875 250.59C495.214 249.649 497.553 248.709 499.891 247.769ZM518.686 300.774C526.494 302.791 534.248 304.926 541.753 307.709C544.479 308.721 547.465 309.078 550.136 310.22C552.68 311.306 553.062 311.192 552.157 313.318C549.623 319.272 543.619 318.244 538.359 317.333C530.126 315.907 522.064 313.93 513.933 312.07C505.987 310.253 497.872 309.062 490.045 306.784C482.014 304.448 474.187 302.236 465.925 300.693C463.514 300.243 444.441 298.575 444.586 296.674C456.598 295.186 468.965 296.652 481.03 296.807C493.57 296.967 506.524 297.63 518.686 300.774ZM508.088 277.741C508.237 273.646 508.297 269.539 508.83 265.469C512.404 269.675 515.629 270.934 520.134 266.992C524.447 263.218 525.409 261.251 530.877 264.798C535.617 267.875 540.102 267.733 545.136 265.04C548.207 263.397 553.141 256.685 556.369 258.066C557.907 258.725 559.034 261.38 560.587 262.357C562.536 263.581 565.532 264.43 567.803 264.904C573.167 266.025 576.363 262.735 579.73 259.217C584.612 254.115 584.469 257.079 588.996 260.616C594.045 264.562 598.267 262.634 602.838 259.267C605.624 267.047 606.665 275.544 607.452 283.701C607.718 286.455 608.709 290.366 606.115 292.314C604.286 293.687 600.405 293.741 598.202 294.5C590.332 297.213 582.769 301.063 576.186 305.991C573.621 307.911 571.385 310.262 567.881 309.825C564.541 309.408 561.295 306.742 558.608 304.982C555.693 303.073 552.743 300.905 549.336 299.841C547.341 299.217 544.145 299.443 542.399 298.3C539.154 296.176 542.973 290.603 542.165 286.862C541.553 284.022 539.839 278.1 535.736 279.765C529.631 282.242 533.184 291.911 536.541 294.929C529.673 293.766 522.069 292.068 515.445 289.91C510.328 288.243 507.904 282.735 508.088 277.741ZM623.277 297.682C637.376 293.908 650.569 291.362 665.242 290.675C671.736 290.37 678.024 290.563 684.447 290.618C688.144 290.651 690.962 287.807 688.008 284.537C683.92 280.009 671.45 281.733 665.925 281.529C651.115 280.984 637.536 282.589 623.51 287.244C624.993 284.638 628.556 284.3 630.999 282.953C633.994 281.299 636.031 278.576 637.311 275.552C640.641 267.69 637.289 260.281 633.806 253.099C640.648 254.854 647.726 258.697 654.605 259.673C656.048 259.877 656.972 259.746 658.248 260.247C659.031 260.553 659.278 261.615 660.249 261.847C660.718 261.959 661.844 260.949 662.375 261.092C664.469 261.656 662.813 261.806 664.137 262.624C665.189 263.273 665.104 264.108 667.032 263.801C667.887 263.667 668.814 262.405 669.265 262.371C669.839 262.327 669.706 261.661 670.584 261.855C672.182 262.209 672.041 264.172 672.573 265.137C673.142 266.166 672.335 267.533 674.058 268.096C675.347 268.517 675.671 267.219 676.766 267.312C677.431 267.369 678.812 268.283 679.4 268.84C681.293 270.633 683.886 272.614 686.431 273.781C686.181 273.541 687.631 272.963 687.284 272.828C687.051 272.738 688.574 273.088 688.551 273.083C690.021 273.402 690.797 275.553 691.54 276.338C692.906 277.776 695.028 279.294 696.943 279.929C700.253 281.027 700.153 279.714 701.361 283.465C703.714 279.937 704.617 285.846 707.536 286.497C709.048 286.834 708.872 286.216 710.245 286.97C711.188 287.488 711.817 289.072 712.528 289.836C712.833 288.734 713.138 287.63 713.442 286.529C715.544 290.327 720.082 296.349 725.059 295.26C725.059 296.296 724.611 297.535 725.453 298.42C726.04 299.038 726.992 298.336 727.452 298.695C727.853 299.009 728.813 300.258 729.12 300.463C729.726 300.868 730.826 301.164 731.352 301.568C731.816 301.923 732.045 303.62 732.559 304.234C733.526 305.387 735.196 305.615 735.986 306.998C736.167 305.635 736.347 304.27 736.526 302.907C738.094 304.062 738.229 304.958 738.614 306.648C739.162 309.054 738.434 308.49 740.175 309.505C741.885 310.504 742.777 310.392 744.345 312.124C745.882 313.823 745.895 314.869 748.113 313.1C748.526 314.409 748.659 316.102 749.76 317.105C750.591 317.863 754.035 317.896 754.364 319.686C747.894 314.481 752.152 322.387 754.367 319.699C754.835 322.576 757.043 323.505 759.565 325.554C761.916 327.463 762.301 327.324 763.104 330.531C763.086 330.461 764.286 331.17 764.373 331.312C762.082 331.624 765.634 334.065 766.234 334.511C766.673 334.837 767.243 334.059 767.971 334.586C768.803 335.189 769.481 336.561 770.159 337.388C771.995 339.63 773.354 341.556 775.286 343.379C777.372 345.346 778.386 347.833 780.388 350.133C782.61 352.686 783.811 355.623 785.669 358.395C787.435 361.032 789.78 363.148 791.825 365.562C795.085 369.404 796.193 377.866 802.27 378.088C801.913 378.44 802.409 381.062 802.467 381.546C802.754 383.928 802.564 386.219 804.041 388.376C804.38 385.915 805.73 386.864 806.903 388.156C808.854 390.307 807.14 389.766 807.243 391.945C807.369 394.587 807.684 392.543 808.739 394.85C809.565 396.656 810.018 397.828 810.462 399.834C807.029 400.093 805.457 397.419 804.189 394.827C803.658 393.743 803.475 391.962 802.536 391.115C801.537 390.213 800.164 390.142 799.137 389.136C797.167 387.203 796.313 384.189 793.99 382.307C791.366 380.182 790.784 379.178 788.615 376.636C786.216 373.825 782.902 371.852 780.385 369.133C777.864 366.409 778.069 367.896 774.901 366.91C771.534 365.861 766.088 355.764 761.845 359.653C762.013 357.11 758.017 354.717 755.998 353.795C755.125 353.397 754.109 353.757 753.234 353.16C752.287 352.512 752.219 351.263 751.264 350.486C751.264 350.486 749.799 350.825 749.502 350.682C748.896 350.39 748.892 349.355 748.357 349.015C746.879 348.073 745.116 347.085 743.547 346.283C739.733 344.332 736.362 341.93 732.681 339.582C729.529 337.57 725.712 333.936 722.068 332.876C718.885 331.949 716.883 332.421 714.277 330.566C712.857 329.556 713.275 329.217 710.993 328.588C708.821 327.99 707.601 328.298 706.45 326.101C704.437 322.258 705.708 314.757 705.318 310.447C704.905 305.873 704.413 301.186 703.163 296.739C701.683 291.483 699.729 288.735 693.816 289.972C682.099 292.428 670.525 294.764 658.755 296.92C635.302 301.215 612.252 308.226 589.314 314.449C587.567 314.924 577.821 317.052 579.812 312.246C580.729 310.029 586.898 309.203 588.963 308.507C600.3 304.681 611.689 300.783 623.277 297.682ZM619.337 287.901C617.624 288.523 615.912 289.146 614.198 289.769V285.228C615.912 286.118 617.624 287.009 619.337 287.901ZM612.218 263.887C613.706 265.047 616.733 262.256 617.998 261.69C620.16 260.724 622.912 259.895 625.327 260.094C629.781 260.461 633.039 264.642 632.223 268.881C630.842 276.053 620.125 279.445 614.215 282.249C614.026 279.707 613.163 276.652 615.032 274.453C616.655 272.544 619.802 272.683 621.3 270.653C625.069 265.549 614.855 265.087 612.572 269.144C611.672 266.551 610.771 263.958 609.871 261.365C612.044 261.022 611.09 263.009 612.218 263.887ZM622.759 249.849C620.633 251.159 618.506 252.47 616.38 253.781C615.326 249.243 618.919 248.646 622.759 249.849ZM816.523 407.777C813.738 409.044 813.042 406.018 811.04 405.887C813.405 404.501 813.405 404.501 816.523 407.777ZM827.849 473.854C828.195 478.204 827.924 482.603 828.532 486.935C828.994 490.231 830.394 493.298 830.544 496.631C830.871 503.93 828.286 511.364 823.065 516.715C818.126 521.777 811.06 526.133 804.393 528.262C801.389 529.219 798.254 531.344 795.336 532.129C792.108 532.998 789.042 531.107 786.379 534.499C784.604 519.947 785.901 504.74 785.761 490.095C785.621 475.419 785.786 460.738 783.182 446.22C780.864 433.289 776.292 418.746 767.866 408.168C764.443 403.872 760.229 400.354 755.784 397.06C753.478 395.352 751.171 393.525 748.603 392.176C744.65 390.099 741.284 390.386 736.985 389.794C730.831 388.947 725.112 388.231 718.937 389.883C713.188 391.422 706.856 393.174 701.707 395.846C696.577 398.509 690.62 399.606 685.295 401.99C681.673 403.613 674.148 409.033 670.129 408.057C666.239 407.112 660.48 400.816 657.996 397.997C654.821 394.392 652.195 390.215 649.379 386.338C648.39 384.976 646.374 382.872 646.117 381.124C645.671 378.089 646.946 379.081 649.986 379.42C657.803 380.295 665.155 381.678 672.646 384.024C676.375 385.191 683.665 389.913 687.393 387.083C693.086 382.763 684.436 375.336 681.268 372.841C675.87 368.59 669.594 365.434 663.839 361.656C657.727 357.642 649.643 353.369 645.709 347.187C657.197 350.421 668.674 354.125 679.827 358.294C684.93 360.201 689.974 362.216 694.766 364.752C697.458 366.176 702.898 370.029 706.139 368.184C713.187 364.172 697.001 352.524 694.666 350.143C691.037 346.444 687.481 342.78 683.493 339.423C680.802 337.159 676.575 335.567 675.325 332.227C679.79 333.768 683.401 336.788 687.583 338.839C689.773 339.914 691.77 340.533 694.188 340.861C696.766 341.214 697.073 341.605 699.105 342.582C700.686 343.344 702.311 344.363 704.087 344.881C705.352 345.25 707.563 345.314 708.669 345.998C709.234 346.767 709.818 347.523 710.421 348.266C711.096 348.456 711.76 348.673 712.414 348.921C713.396 349.755 713.977 350.905 714.931 351.765C721.858 358.01 731.122 362.48 738.887 367.712C746.234 372.661 754.03 377.139 761.086 382.541C769.205 388.759 777.633 395.441 784.539 402.896C788.442 407.11 791.651 411.887 794.93 416.546C797.304 419.92 800.756 422.718 802.807 426.197C807.282 433.781 810.995 441.98 815.811 449.441C820.719 457.044 827.111 464.599 827.849 473.854ZM761.845 517.859C763.183 512.595 770.732 506.45 775.556 504.129C773.125 509.864 766.647 513.775 761.845 517.859ZM774.293 536.219C770.178 544.359 752.086 545.29 754.54 533.244C755.743 527.343 760.848 523.721 765.23 519.859C767.256 518.074 772.217 511.69 775.353 512.718C775.206 517.308 774.923 521.918 774.933 526.51C774.94 529.574 775.749 533.339 774.293 536.219ZM769.063 442.403C770.733 445.978 772.396 448.954 769.299 452.153C767.902 453.596 763.347 456.754 761.287 456.053C754.674 453.804 767.282 444.011 769.063 442.403ZM729.063 410.595C730.656 410.512 732.203 410.737 733.777 410.645C735.345 410.552 735.51 410.287 736.963 410.476C737.117 410.689 737.27 410.901 737.424 411.114C737.622 412.54 738.408 412.695 739.779 411.58C741.688 411.984 742.929 412.255 744.753 413.238C739.829 416.623 733.835 420.559 727.798 421.696C718.256 423.492 720.892 411.024 729.063 410.595ZM582.776 486.731C581.787 488.629 578.941 483.887 578.236 483.003C579.55 482.999 583.776 484.816 582.776 486.731ZM659.448 436.772C666.862 432.648 675.667 429.025 683.63 425.954C685.03 432.386 678.201 440.69 673.996 445.091C670.595 448.651 666.494 452.342 661.883 454.391C656.898 456.605 651.449 455.633 651.691 449.418C651.78 447.147 652.322 443.493 653.292 441.417C654.542 438.741 656.906 438.185 659.448 436.772ZM559.23 319.771C560.333 319.71 572.32 318.232 572.256 319.654C572.067 323.928 560.432 320.572 559.23 319.771ZM474.465 402.302C480.796 394.854 491.017 386.814 491.166 376.404C491.387 361.086 473.558 368.729 464.594 369.366C469.334 364.925 493.152 346.297 479.064 339.68C475.014 337.778 469.259 339.637 465.195 340.633C457.985 342.401 451.282 345.463 444.2 347.593C449.26 342.457 458.005 336.619 457.718 328.839C457.368 319.369 449.216 321.659 442.166 323.049C439.457 323.583 427.356 328.173 425.082 325.057C424.25 323.915 425.597 322.465 425.882 321.448C426.386 319.65 426.23 319.022 426.247 317.185C426.282 313.479 428.865 308.72 426.758 305.272C426.277 306.056 425.864 306.87 425.522 307.718C424.827 305.711 425.294 303.584 424.599 301.578C442.198 305.869 460.102 308.219 477.811 311.882C486.776 313.736 495.214 316.929 504.302 318.366C513.468 319.815 522.474 322.032 531.657 323.414C540.035 324.674 548.062 326.772 556.358 328.382C564.446 329.95 572.741 326.512 580.635 324.771C598.316 320.872 615.99 316.879 633.694 313.095C654.124 308.728 675.377 304.994 694.932 297.71C695.311 307.418 696.125 317.107 697.369 326.748C688.733 322.855 675.917 317.779 667.186 324.745C663.692 327.531 662.615 332.343 663.996 336.435C665.499 340.89 670.104 342.959 673.142 346.312C663.896 344.052 640.044 328.117 635.798 344.224C632.799 355.599 647.426 362.948 654.578 369.351C647.476 368.025 637.965 362.611 633.794 371.312C630.19 378.834 634.531 387.02 638.978 393.224C641.388 396.586 644.098 399.75 646.659 403.007C648.014 404.729 649.336 406.476 650.76 408.148C652.188 409.826 654.881 411.582 655.881 413.386C657.895 417.026 653.831 417.249 650.67 418.563C646.723 420.205 643.334 422.962 639.724 425.16C631.459 430.191 624.236 434.864 614.469 436.472C604.414 438.127 594.731 439.856 584.809 442.165C574.916 444.466 566.841 446.678 556.73 443.703C552.12 442.347 548.365 441.142 543.475 441.397C538.339 441.665 535.336 441.411 531.114 438.377C512.943 425.329 493.219 414.621 474.465 402.302ZM441.706 389.202C448.729 385.843 455.798 382.466 463.052 379.579C469.057 377.189 478.175 374.404 484.748 375.452C482.895 379.99 479.514 383.714 475.887 387.056C472.679 390.012 468.672 394.472 464.791 396.535C461.266 398.407 457.166 395.442 453.69 394.199C449.87 392.835 444.614 392.198 441.706 389.202ZM443.471 406.151C446.97 404.765 454.492 409.418 457.675 410.627C463.93 413.006 470.22 415.49 475.732 419.242C469.001 426.659 461.378 433.44 452.319 438.204C446.359 441.339 436.314 444.934 430.693 439.243C423.629 432.091 432.12 417.518 437.12 411.389C437.286 412.438 437.452 413.485 437.619 414.534C439.214 412.099 440.432 407.356 443.471 406.151ZM571.949 469.634C567.583 470.51 566.099 469.719 563.217 466.526C561.268 464.368 559.354 462.128 557.157 460.187C554.915 458.207 549.378 453.433 556.433 456.182C562.863 458.687 568.371 459.94 575.446 458.958C583.535 457.837 591.076 454.576 599.052 452.925C594.679 456.573 590.339 460.257 585.958 463.895C581.33 467.738 577.829 468.452 571.949 469.634ZM572.947 498.972C563.379 505.837 544.117 505.094 550.6 489.989C551.585 487.694 552.963 485.536 554.557 483.581C555.089 482.928 556.035 481.576 556.792 481.138C558.908 479.914 558.322 479.766 560.356 481.807C562.112 483.567 575.83 497.949 572.947 498.972ZM570.11 472.725C570.986 472.454 574.68 470.412 575.521 471.542C576.373 472.685 569.132 476.642 570.11 472.725ZM639.765 577.429C637.614 582.337 620.396 589.442 623.604 579.548C625.024 575.166 626.364 571.848 631.723 571.515C634.816 571.324 641.659 573.107 639.765 577.429ZM670.649 510.917C673.483 506.982 682.843 501.661 686.84 507.53C688.765 510.357 684.092 511.805 681.267 511.078C679.75 510.687 678.509 509.822 676.86 509.757C674.739 509.674 672.667 511.26 670.649 510.917ZM678.163 514.823C676.236 516.684 664.612 526.01 662.729 524.571C666.525 519.397 670.884 513.619 678.163 514.823ZM659.179 609.197C655.143 609.415 657.158 603.615 657.548 601.297C658.525 602.912 663.663 608.955 659.179 609.197ZM669.435 598.803C668.129 596.587 664.611 593.289 665.406 590.439C666.015 588.26 671.506 585.33 673.806 586.58C676.86 588.242 672.432 599.17 669.435 598.803ZM765.211 575.572C763.484 581.244 761.695 579.78 756.281 580.879C750.849 581.982 747.094 586.379 742.312 588.738C743.973 585.39 745.003 581.31 747.785 578.593C748.427 577.965 752.369 576.727 750.123 575.273C748.16 574.003 745.338 578.125 744.495 579.249C740.353 584.778 737.456 591.53 735.065 597.893C733.888 601.017 732.946 604.2 732.39 607.482C731.893 610.406 732.429 613.466 731.923 616.314C731.108 620.901 724.574 620.924 720.644 622.107C717.087 623.177 713.545 624.338 709.853 624.915C706.652 625.415 703.329 624.504 700.227 625.105C696.868 625.756 695.358 627.657 691.54 627.227C688.427 626.878 685.514 625.512 682.358 625.376C679.405 625.249 676.46 626.223 673.525 625.43C670.562 624.63 670.705 624.32 671.379 621.545C671.8 622.294 672.222 623.043 672.644 623.791C673.825 622.908 674.642 620.217 675.365 618.953C676.487 616.995 677.402 616.318 676.986 613.88C676.373 610.278 672.968 607.717 672.196 604.291C671.39 600.718 674.161 597.795 675.799 594.812C678.038 590.728 678.008 587.699 676.132 583.476C677.547 583.832 678.962 584.188 680.378 584.545C678.438 580.53 671.859 582.158 668.561 583.347C666.903 583.944 664.275 586.293 662.491 586.234C660.04 586.152 658.762 583.079 657.709 581.386C654.66 576.491 651.18 571.656 647.574 567.11C646.582 565.86 645.282 565.056 645.625 563.631C645.917 562.423 648.759 560.708 649.682 559.963C653.141 557.175 657.543 555.629 660.792 552.694C665.702 548.259 671.364 545.081 676.383 540.732C681.614 536.203 687.002 532.043 692.452 527.763C697.972 523.428 702.753 518.319 708.233 513.94C709.653 516.393 712.404 525.178 715.55 525.858C719.218 526.649 719.108 522.512 718.926 520.022C718.666 516.473 716.6 513.026 716.37 509.639C716.123 506.017 719.778 504.397 722.537 502.302C726.797 499.065 736.228 491.693 731.159 485.625C726.792 480.398 712.591 490.419 708.677 493.432C705.351 495.993 702.781 498.309 699.036 500.329C696.402 501.748 691.984 507.208 688.862 506.704C685.149 506.105 683.698 502.238 679.156 502.366C674.717 502.489 670.946 505.538 668.194 508.598C661.97 515.517 659.832 524.774 654.162 531.985C651.366 535.541 647.739 538.476 644.706 541.841C641.376 545.533 640.668 549.787 637.384 553.4C627.987 541.463 617.748 530.16 607.837 518.615C602.888 512.85 598.042 507.015 593.199 501.169C591.384 498.978 589.337 496.922 587.675 494.621C585.398 491.469 585.808 488.937 584.914 485.422C584.518 483.865 582.663 481.998 583.159 480.509C583.827 478.508 588.519 476.937 590.211 476.12C597.119 472.775 603.386 468.596 609.827 464.511C621.757 456.947 633.825 449.854 646.512 443.394C646.293 446.177 644.394 449.062 645.67 451.854C646.264 450.248 647.204 443.091 649.454 442.783C649.024 442.842 649.378 451.961 649.726 453.263C650.764 457.149 653.777 459.806 658.087 459.779C666.296 459.729 673.654 451.214 678.211 445.574C681.295 441.755 684.259 437.314 685.345 432.534C686.322 428.243 685.248 425.258 689.926 423.079C699.527 418.608 709.204 414.965 719.471 412.595C719.011 416.813 717.728 422.007 721.75 425.041C726.189 428.39 731.997 425.406 736.176 423.19C740.316 420.996 746.699 414.967 751.562 416.718C756.344 418.441 759.673 424.16 762.35 427.957C764.709 431.304 767.277 433.718 764.545 437.449C761.483 441.63 759.489 445.711 757.036 450.253C756.093 451.999 755.194 453.138 755.86 454.926C756.076 455.507 758.535 458.964 759.202 459.458C763.462 462.619 769.214 456.607 772.255 454.325C773.327 464.153 773.567 473.937 774 483.796C774.317 491.016 777.249 498.125 771.034 503.403C764.822 508.679 759.636 514.097 755.849 521.241C753.826 525.058 752.013 528.975 749.824 532.713C748.363 535.21 745.279 538.872 747.166 541.811C749.157 540.01 749.75 537.271 751.409 535.239C752.403 539.455 753.403 544.132 758.08 545.919C763.461 547.974 768.809 544.418 773.575 542.438C771.866 553.708 768.533 564.66 765.211 575.572ZM759.71 588.526C756.018 596.052 752.682 605.125 745.863 610.667C744.365 611.884 738.003 616.634 735.581 615.838C733.527 615.162 734.657 611.202 735.016 609.506C736.833 600.894 739.976 595.475 747.3 589.981C750.331 587.706 754.223 584.799 758.132 584.239C762.34 583.634 761.128 585.634 759.71 588.526ZM863.875 767.156C854.3 754.742 840.768 745.094 827.979 735.768C822.187 731.543 815.803 728.375 809.95 724.15C803.334 719.372 796.613 714.764 789.202 711.164C775.15 704.337 759.82 699.578 746.559 691.505C740.092 687.567 733.017 683.763 726.937 679.343C724.267 677.4 721.908 674.917 719.495 672.694C717.252 670.627 712.438 667.627 711.546 664.603C715.277 664.021 717.4 660.568 720.73 660.216C721.827 660.1 728.701 661.833 727.762 658.654C730.255 658.594 730.546 658.559 732.636 658.039C733.501 657.823 734.527 658.16 735.402 657.865C736.741 657.414 737.652 656.113 739.004 655.614C739.965 655.259 743.534 655.655 744.075 655.214C745.553 654.01 743.983 654.117 743.102 652.614C745.973 652.544 747.945 653.927 750.823 652.457C751.7 652.008 752.441 650.976 753.291 650.442C754.797 649.492 755.341 650.964 756.373 648.993C757.338 651.712 757.312 650.96 759.639 650.16C761.957 649.364 763.63 648.789 766.271 648.589C772.576 648.114 778.906 648.843 785.183 648.416C787.479 648.259 789.442 647.762 791.723 648.049C793.732 648.301 793.126 649.633 794.797 647.838C795.185 647.421 793.931 646.28 794.532 645.68C794.797 645.415 795.662 645.601 795.989 645.466C798.924 644.244 798.937 645.951 799.458 648.174C801.179 647.79 802.935 647.442 804.43 646.479C803.675 645.836 802.411 645.127 803.141 643.953C805.623 644.849 807.246 644.435 806.004 647.034C808.502 647.82 808.969 646.795 811.213 646.57C812.539 646.438 814.391 647.223 815.497 646.213C816.704 645.11 814.8 643.911 817.017 642.963C817.472 643.183 817.808 643.516 818.029 643.961C819.226 644.306 819.011 644.755 817.383 645.309C821.743 647.464 820.719 645.055 822.549 642.506C822.973 641.919 824.867 640.094 825.729 640.976C827.038 642.312 824.366 642.737 824.939 644.066C825.932 646.37 829.396 643.417 830.459 642.25C831.264 641.369 831.592 639.678 832.459 639.019C833.663 638.104 835.397 639.518 836.905 639.265C843.794 638.114 850.301 629.282 845.111 623.37C843.716 621.78 842.535 622.096 840.873 621.093C839.23 620.102 838.308 618.388 836.99 616.972C833.979 613.74 830.294 611.319 826.085 609.771C816.322 606.18 805.803 603.561 795.551 601.634C790.804 600.741 785.749 599.375 780.888 599.386C778.024 599.391 773.711 601.514 771.034 600.497C765.829 598.519 773.471 588.396 774.732 585.125C778.436 575.519 781.231 565.276 783.064 555.191C783.422 553.217 783.284 550.661 784.03 548.78C784.886 546.618 785.069 546.924 786.901 546.748C790.211 546.429 793.83 548.084 797.276 547.512C801.096 546.878 805.224 547.173 809.079 546.046C810.852 545.529 812.495 544.966 813.662 543.54C814.03 543.093 813.62 542.703 813.853 542.39C813.925 542.291 815.243 540.936 815.286 540.858C815.273 540.156 815.337 539.46 815.478 538.771C816.814 539.828 816.155 542.047 818.407 542.099C818.809 539.733 818.814 539.257 820.442 537.926C820.318 538.028 821.668 536.934 821.495 537.05C821.577 536.629 821.739 536.235 821.981 535.871C822.742 535.521 823.546 535.335 824.393 535.313C826.153 533.588 825.422 532.667 825.422 530.345C826.842 531.048 828.262 531.751 829.683 532.455C830.026 525.573 834.421 521.805 837.341 516.228C838.585 513.852 839.853 511.994 840.15 509.128C840.321 507.474 839.874 506.015 840.592 504.457C841.243 503.043 842.701 502.281 843.309 500.74C844.508 497.709 843.614 493.839 843.68 490.691C843.771 486.326 844.228 481.975 844.378 477.611C844.671 469.046 843.768 460.243 842.424 451.776C841.781 447.727 840.705 443.797 839.861 439.79C839.166 436.497 837.504 433.408 836.91 430.344C836.663 429.071 837.045 427.928 836.642 426.52C836.112 424.669 835.225 422.849 834.565 421.031C833.025 416.785 831.502 412.545 829.77 408.365C826.412 400.264 822.483 392.405 818.749 384.46C815.157 376.819 812.183 368.942 807.531 361.807C802.949 354.78 798.015 347.871 792.965 341.144C787.705 334.139 781.055 328.12 775.954 321.05C766.376 307.775 753.016 296.837 739.039 287.804C710.197 269.165 679.03 250.554 644.446 244.163C639.233 243.201 633.954 242.533 628.642 242.408C625.346 242.33 619.885 243.85 616.764 242.786C613.269 241.595 613.589 237.852 612.715 234.915C611.589 231.141 609.051 228.668 606.169 226C603.135 223.192 600.382 219.911 596.598 218.001C592.764 216.067 588.241 215.343 583.993 214.758C580.2 214.235 574.532 214.724 571.067 213.148C567.912 211.712 569.47 210.217 572.425 211.447C572.641 210.204 572.816 209.401 573.652 208.441C574.071 207.958 576.052 207.281 576.1 206.83C576.156 206.303 574.494 204.801 574.257 204.121C573.745 202.656 574.036 200.628 574.643 199.253C577.622 201.779 578.486 202.897 581.812 200.483C583.217 199.464 583.648 199.014 585.275 198.5C585.716 198.36 586.706 198.792 587.091 198.55C588.561 197.627 587.209 197.844 587.908 196.753C587.732 197.029 588.966 194.129 588.908 194.735C589.058 193.19 589.537 193.665 588.559 191.767C586.644 188.055 581.765 187.903 584.252 183.666C585.23 181.999 586.091 182.165 586.367 179.748C586.514 178.448 586.331 176.959 586.324 175.637C586.313 172.933 586.846 171.04 584.189 169.664C581.636 168.34 579.28 169.792 578.244 166.509C577.158 163.064 578.251 158.647 574.337 156.287C571.477 154.564 567.346 156.037 564.185 155.194C561.018 154.35 558.105 151.26 554.89 153.632C552.607 155.319 551.394 159.464 547.091 157.223C545.149 156.211 544.08 152.817 542.854 150.913C540.903 147.878 539.338 146.782 536.335 149.738C534.484 151.561 530.581 155.998 530.342 158.521C530.08 161.307 532.629 162.471 529.429 164.118C526.246 165.758 524.46 164.556 521.876 167.884C519.313 171.185 521.297 173.009 518.328 176.168C514.616 180.116 512.641 181.821 512.693 187.141C512.729 190.79 509.348 193.941 511.321 197.403C513.531 201.283 519.983 202.896 523.894 204.475C522.589 206.776 520.797 208.25 522.321 210.619C523.702 212.763 527.606 213.209 530.025 212.819C531.652 212.558 531.711 212.793 532.992 211.702C533.831 210.987 532.68 210.095 534.408 209.7C536.247 209.277 539.184 212.714 540.379 213.573C537.71 216.876 530.38 217.493 526.502 219.167C524.138 220.189 521.966 221.699 519.559 222.612C517.376 223.44 514.719 223.247 512.74 224.529C509.321 226.741 507.899 232.223 505.804 235.446C503.432 239.094 501.133 240.788 496.582 241.545C490.905 242.489 486.334 242.869 481.04 245.226C474.575 248.105 468.202 251.144 461.853 254.248C451.611 259.253 442.097 264.39 432.587 270.444C422.638 276.778 412.96 283.389 403.36 290.008C393.865 296.553 385.893 304.606 377.645 312.522C370.977 318.921 365.126 325.828 358.484 332.225C350.643 339.778 344.876 349.312 337.606 357.325C333.629 361.709 329.823 366.02 327.327 371.184C325.304 375.37 321.787 379.477 319.438 383.869C316.438 389.484 313.598 395.01 310.229 400.439C308.847 402.667 307.204 404.579 305.746 406.705C303.877 409.429 303.987 412.059 303.484 415.199C302.959 414.433 302.435 413.667 301.91 412.901C300.959 414.883 299.808 416.833 298.984 418.862C298.458 420.157 298.541 421.995 298.012 423.127C297.349 424.549 296.542 424.36 295.716 425.544C294.832 426.81 294.548 428.512 293.617 429.87C289.591 435.741 288.043 443.19 285.974 449.889C283.2 458.875 283.638 469.204 283.788 478.471C283.948 488.258 284.51 498.046 286.053 507.73C287.451 516.5 290.44 524.912 295.12 532.603C299.197 539.303 304.82 543.208 312.022 546.64C315.329 548.216 318.399 547.729 321.871 547.981C325.673 548.257 328.267 549.241 332.29 548.375C334.22 547.959 335.134 546.619 336.668 546.173C337.617 545.896 338.128 546.348 339.039 546.242C340.343 546.092 343.054 545.482 344.468 545.629C348.867 546.087 348.128 552.428 348.561 555.665C349.227 560.653 349.715 565.693 350.614 570.649C352.503 581.072 356.581 590.809 358.991 601.052C347.82 602.351 338.237 604.339 327.767 608.37C317.263 612.414 306.643 613.786 295.589 615.797C285.247 617.677 275.299 621.191 267.022 627.558C263.142 630.541 259.111 634.032 261.96 638.944C263.782 642.085 267.066 642.884 269.902 644.71C270.474 644.018 268.817 642.554 268.514 642.148C270.898 642.615 270.824 643.675 272.565 644.598C274.086 645.405 275.331 645.377 276.997 645.947C281.062 647.339 283.06 650.814 287.079 651.79C288.343 652.096 289.997 652.83 291.29 653.039C292.842 653.289 294.005 652.641 295.579 652.915C296.429 653.449 297.347 653.83 298.335 654.059C298.982 653.773 299.621 653.47 300.251 653.151C302.513 653.375 303.91 654.731 305.747 655.845C305.87 654.442 305.693 652.983 307.087 652.067C307.631 653.432 306.751 654.297 308.236 655.236C310.118 656.427 312.59 654.941 314.274 654.188C314.75 658.725 325.769 658.458 329.262 658.393C334.098 658.304 338.93 656.474 343.809 657.495C346.299 658.016 348.956 658.559 351.434 659.235C354.417 660.048 358.025 660.775 360.962 661.8C362.13 662.208 363.561 663.515 364.804 663.427C365.793 663.356 366.059 661.964 367.21 662.003C368.514 662.049 368.952 663.434 370.081 663.851C371.769 664.473 373.322 663.289 374.927 663.887C375.504 664.102 376.286 665.024 377.024 665.324C378.145 665.78 380.363 665.786 381.611 666.005C383.379 666.318 384.962 666.108 386.477 666.211C387.699 666.295 387.672 667.078 388.257 667.129C388.927 667.187 390.095 664.988 390.996 664.666C392.308 664.197 394.689 665.315 396.027 665.512C386.334 678.039 374.647 689.111 361.979 698.805C348.314 709.264 334.321 719.708 319.668 728.881C306.363 737.21 293.484 744.414 283.169 756.171C274.471 766.085 260.626 776.692 262.76 791.062C264.893 805.419 281.244 811.263 294.345 814.003C310.823 817.451 327.786 816.063 344.309 818.001C351.355 818.828 359.184 818.387 366.277 817.683C374.654 816.851 381.834 811.638 389.037 807.869C401.991 801.088 413.067 792.016 425.827 785.025C441.803 776.269 457.612 766.993 475.128 761.13C483.276 758.402 491.665 755.288 498.238 749.678C499.216 748.843 499.945 747.583 501.05 746.895C502.929 745.726 503.432 746.911 504.523 746.557C505.362 746.284 506.174 745.42 506.9 745.161C508.738 744.504 509.558 744.775 511.616 744.775C509.85 743.805 508.233 741.302 510.066 739.262C513.205 735.768 513.746 741.351 514.925 742.645C515.924 741.42 515.541 740.33 515.286 738.938C516.13 739.47 516.975 740.001 517.821 740.533C517.239 737.84 517.792 735.359 519.289 733.012C520.669 730.849 521.009 731.154 521.39 728.156C525.676 731.886 526.514 722.831 526.9 719.529C527.274 716.328 526.905 714.029 529.113 711.229C531.484 708.223 535.089 706.324 538.098 703.989C542.852 700.298 548.083 695.638 554.657 699.177C559.847 701.971 562.671 708.821 567.54 712.34C570.493 714.475 573.611 714.691 575.493 718.002C577.016 720.678 577.51 723.881 578.947 726.629C582.428 733.29 587.44 740.913 593.157 746.022C598.479 750.778 605.311 750.754 611.538 753.703C617.703 756.625 624.109 759.789 630.635 761.905C637.762 764.217 645.448 765.199 652.387 768C655.956 769.441 659.148 771.61 662.749 772.99C666.632 774.477 670.723 775.525 674.659 776.888C690.25 782.288 705.508 788.909 721.887 791.902C729.152 793.229 735.878 796.835 743.196 797.594C746.335 797.92 748.895 798.332 751.967 799.081C756.786 800.255 755.765 800.88 757.541 804.711C760.461 811.018 767.593 807.283 773.091 807.441C781.89 807.694 790.556 806.337 799.342 806.273C814.708 806.16 829.502 804.509 844.366 799.7C859.288 794.871 876.277 783.234 863.875 767.156Z" fill="black"/>
<path fill-rule="evenodd" clip-rule="evenodd" d="M686.266 274.395C686.971 274.717 686.477 274.596 686.266 274.395Z" fill="black"/>
<path fill-rule="evenodd" clip-rule="evenodd" d="M415.615 543.01C418.952 539.786 433.151 540.438 434.224 546.206C435.421 552.644 422.733 562.369 418.09 565.096C412.115 568.604 404.822 569.262 405.881 560.452C406.682 553.798 410.863 547.602 415.615 543.01ZM427.341 536.373C427.774 538.156 424.583 537.55 423.704 537.126C423.29 536.315 426.908 534.582 427.341 536.373ZM402.855 548.18C405.688 548.422 408.932 544.09 411.069 542.615C412.013 544.006 405.786 551.657 405.101 553.402C403.39 557.764 402.438 563.274 404.77 567.625C411.588 580.338 429.035 562.183 433.399 555.842C436.452 551.407 438.566 545.907 434.253 541.561C432.718 540.013 430.182 539.584 428.755 538.112C426.877 536.177 428.355 533.679 424.581 534.101C421.976 534.393 418.849 536.633 416.316 537.444C413.264 538.421 410.521 539.433 407.857 541.243C407.257 541.651 399.357 547.88 402.855 548.18Z" fill="black"/>
<path fill-rule="evenodd" clip-rule="evenodd" d="M603.013 552.447C601.233 561.181 592.156 570.141 582.604 570.489C573.092 570.835 570.013 561.333 571.692 553.76C573.124 547.3 578.979 536.078 587.332 537.315C593.9 538.286 604.539 544.96 603.013 552.447ZM596.956 537.848C590.925 533.399 582.593 531.34 575.602 534.87C573.311 536.027 564.162 541.133 566.946 544.589C570.7 541.816 573.94 537.967 578.818 537.044C577.997 540.65 573.313 543.893 571.662 547.404C569.733 551.505 568.677 556.2 568.993 560.707C569.556 568.73 575.191 574.963 583.916 573.86C591.903 572.85 598.886 567.013 602.697 560.451C607.784 551.688 604.918 543.722 596.956 537.848Z" fill="black"/>
<path fill-rule="evenodd" clip-rule="evenodd" d="M540.95 572.301C536.655 578.364 530.108 584.066 522.537 585.939C512.737 588.362 515.49 580.64 518.419 575.098C521.009 570.198 525.451 561.77 532.216 561.815C534.512 561.829 538.789 562.887 540.801 564.058C544.767 566.366 543.21 569.112 540.95 572.301ZM531.803 558.978C533.344 557.342 540.167 550.325 541.082 555.794C543.041 553.628 541.495 551.831 538.987 551.602C535.961 551.326 532.652 554.539 530.469 556.136C525.974 559.42 522.514 562.783 519.535 567.388C516.252 572.464 507.878 583.937 515.206 588.974C523.127 594.418 534.656 584.363 539.615 579.178C542.788 575.86 546.989 570.99 545.782 566.125C544.301 560.151 537.013 559.524 531.803 558.978Z" fill="black"/>
<path fill-rule="evenodd" clip-rule="evenodd" d="M498.006 461.279C493.574 466.101 484.57 473.127 477.151 472.299C470.385 471.544 473.026 464.302 475.421 460.798C479.018 455.531 483.838 450.586 490.801 450.298C493.807 450.174 497.703 450.232 500.032 452.403C503.211 455.367 500.348 458.732 498.006 461.279ZM497.535 447.883C492.343 446.172 490.303 445.52 485.257 448.24C481.205 450.423 477.611 453.51 474.83 457.014C470.668 462.26 466.471 474.059 477.158 475.535C488.879 477.155 516.76 454.22 497.535 447.883Z" fill="black"/>
<path fill-rule="evenodd" clip-rule="evenodd" d="M513.51 477.988C510.139 481.272 505.929 483.951 501.125 484.866C503.157 480.542 507.696 471.094 513.077 469.778C515.556 469.171 518.383 469.966 518.179 472.659C518.031 474.606 514.841 476.691 513.51 477.988ZM517.852 466.557C515.06 465.223 515.94 464.311 512.691 465.358C510.132 466.182 506.903 467.613 504.772 469.261C503.608 470.161 499.988 473.349 500.43 474.972C501.234 477.921 503.934 473.402 504.644 472.533C505.861 473.479 499.64 481.967 499.27 483.364C497.89 488.567 502.172 489.117 506.37 487.415C512.03 485.12 528.792 471.783 517.852 466.557Z" fill="black"/>
<path fill-rule="evenodd" clip-rule="evenodd" d="M600.84 606.544C601.259 603.095 601.852 599.449 605.172 597.513C608.163 595.766 611.261 596.019 611.704 599.6C612.116 602.925 608.699 608.83 605.935 610.644C602.087 613.17 601.345 610.021 600.84 606.544ZM605.785 614.392C613.685 609.984 618.666 589.767 604.102 595.434C595.825 598.653 598.869 618.25 605.785 614.392Z" fill="black"/>
<path fill-rule="evenodd" clip-rule="evenodd" d="M538.306 530.559C539.552 528.124 540.977 527.316 543.504 526.25C541.819 527.767 540.098 529.167 538.306 530.559ZM540.128 524.558C538.339 526.27 534.238 528.88 534.812 531.821C535.337 534.505 537.487 534.351 539.437 533.514C543.527 531.762 545.803 524.088 550.08 523.369C545.336 520.502 544.228 520.635 540.128 524.558Z" fill="black"/>
<path fill-rule="evenodd" clip-rule="evenodd" d="M540.757 372.152C540.985 380.325 541.185 388.496 541.374 396.669C541.441 399.541 540.722 403.635 541.626 406.387C542.024 407.598 545.634 412.852 546.915 413.192C551.397 414.381 549.796 403.669 549.827 401.031C549.937 392.132 549.799 383.223 549.761 374.324C549.74 369.738 551.098 331.284 544.858 331.471C543.782 331.504 541.134 335.901 540.735 336.782C539.481 339.55 539.943 343.654 539.972 346.604C540.056 355.116 540.52 363.641 540.757 372.152Z" fill="black"/>
<path fill-rule="evenodd" clip-rule="evenodd" d="M578.545 395.975C578.896 398.234 578.711 402.003 581.379 403.174C583.7 404.193 584.59 402.981 585.458 401.087C587.454 396.732 586.734 390.073 586.697 385.57C586.624 376.644 585.57 367.757 584.841 358.865C584.521 354.964 585.186 351.045 584.674 346.963C584.45 345.171 584.226 337.964 580.743 338.3C577.594 338.603 577.877 346.157 577.706 348.103C576.278 364.303 576.03 379.803 578.545 395.975Z" fill="black"/>
<path fill-rule="evenodd" clip-rule="evenodd" d="M727.191 582.011C725.856 588.517 704.079 611.175 698.596 598.503C695.343 590.985 702.395 582.8 707.893 578.448C711.297 575.754 715.548 573.111 720.187 573.927C724.125 574.62 728.038 577.878 727.191 582.011ZM715.946 570.34C714.407 570.687 701.551 579.295 701.433 579.182C700.316 578.113 708.425 566.589 709.26 565.58C716.135 557.275 720.697 563.564 724.997 570.092C724.081 566.193 721.562 560.532 717.353 558.883C712.039 556.802 707.893 561.94 705.337 565.634C701.722 570.856 699.73 576.525 697.722 582.417C696.764 585.227 695.673 587.774 694.052 590.308C692.451 592.808 689.651 595.564 690.065 598.727C692.34 597.521 693.549 595.16 694.982 593.215C696.581 593.833 696.032 598.695 696.356 599.933C697.173 603.043 699.401 605.476 702.848 606.012C709.273 607.008 716.207 601.341 720.502 597.492C725.028 593.437 729.9 587.877 729.861 581.635C729.82 575.113 723.093 568.727 715.946 570.34Z" fill="black"/>
<path fill-rule="evenodd" clip-rule="evenodd" d="M733.362 465.792C729.717 471.111 723.321 477.487 716.554 478.723C711.587 479.63 708.31 476.119 710.306 471.381C711.991 467.376 717.734 464.847 721.498 463.085C724.484 461.687 738.406 458.432 733.362 465.792ZM730.68 457.093C723.214 456.824 717.192 461.971 711.625 466.078C712.882 461.36 715.726 456.227 719.731 453.155C725.181 448.975 730.348 451.571 736.085 453.661C734.67 449.402 728.316 447.87 724.268 448.472C719.15 449.233 715.47 453.398 712.882 457.429C709.795 462.236 708.739 467.902 705.105 472.412C703.442 474.476 693.14 482.199 695.473 485.356C699.32 481.461 703.169 477.568 707.016 473.673C708.014 478.276 709.114 483.517 715.278 483.07C720.2 482.711 725.814 478.722 729.414 475.673C734.062 471.734 743.21 457.545 730.68 457.093Z" fill="black"/>
<path fill-rule="evenodd" clip-rule="evenodd" d="M626.093 502.508C622.93 503.895 615.968 505.78 614.199 501.614C611.743 495.827 619.647 485.678 623.41 481.823C625.724 479.451 627.294 478.224 630.521 479.759C633.097 480.985 636.882 484.468 637.87 487.147C639.992 492.896 631.04 500.339 626.093 502.508ZM633.349 474.719C635.925 475.273 636.24 478.391 633.02 477.194C630.606 476.297 630.046 474.009 633.349 474.719ZM636.582 479.112C635.621 476.314 637.578 471.927 632.841 471.725C630.157 471.61 625.24 474.212 622.897 475.27C619.649 476.735 616.593 478.972 614.897 482.123C613.326 485.042 614.448 485.812 616.842 483.389C617.135 483.579 611.426 497.617 611.377 499.024C611.154 505.452 615.926 509.686 622.629 508.546C628.789 507.499 634.341 502.695 637.731 497.847C639.446 495.393 640.855 492.584 640.983 489.579C641.181 484.968 637.958 483.115 636.582 479.112Z" fill="black"/>
<path fill-rule="evenodd" clip-rule="evenodd" d="M666.132 476.753C663.533 471.981 669.555 463.949 674.947 466.298C686.175 471.19 669.542 483.011 666.132 476.753ZM676.218 470.523C675.013 470.57 667.396 473.375 668.517 475.277C670.055 477.886 675.615 471.573 676.218 470.523Z" fill="black"/>
<path fill-rule="evenodd" clip-rule="evenodd" d="M307.933 461.702C307.632 459.669 302.853 462.62 302.881 463.929C303.671 462.422 308.56 465.938 307.933 461.702Z" fill="black"/>
<path fill-rule="evenodd" clip-rule="evenodd" d="M569.29 308.091C575.374 307.665 567.622 278.399 563.188 280.987C558.382 283.792 563.707 308.482 569.29 308.091Z" fill="black"/>
<path fill-rule="evenodd" clip-rule="evenodd" d="M580.652 294.426C586.352 295.204 585.446 282.724 582.38 280.491C576.721 276.368 573.732 293.48 580.652 294.426Z" fill="black"/>
</svg>
